# xmcd CD database file
#
# Track frame offsets:
#	150
#	16016
#	24450
#	34084
#	46930
#	60270
#	70245
#	82951
#	92695
#	104581
#	119447
#	130135
#
# Disc length: 1973 seconds
#
# Revision: 0
# Processed by: cddbd v1.5.1PL0 Copyright (c) Steve Scherf et al.
# Submitted via: CDex 1.51
#
DISCID=8f07b30c
DTITLE=Boxcar Willie - The Best of Boxcar Willie CD2
DYEAR=2004
DGENRE=Country
TTITLE0=Old Kentucky Home
TTITLE1=America the Beautiful
TTITLE2=Hobo Till I Die
TTITLE3=Long Black Limousine
TTITLE4=Hank, You're Like Your Daddy
TTITLE5=Polly Wolly Doodle
TTITLE6=Reflections of an Old Man
TTITLE7=Jessie James Robbed Trains
TTITLE8=Woman, You're Just Like Water
TTITLE9=White Line Fever
TTITLE10=Six Days on the Road
TTITLE11=How Great Thou Art
EXTD=YEAR: 2004
EXTT0=
EXTT1=
EXTT2=
EXTT3=
EXTT4=
EXTT5=
EXTT6=
EXTT7=
EXTT8=
EXTT9=
EXTT10=
EXTT11=
PLAYORDER=
